PathFileType	4	(X/Y/Z)	C:/Users/opensim2020/Desktop/walking_exp_matlab/subject02_walking04_straight_03.trc	
DataRate	CameraRate	NumFrames	NumMarkers	Units	OrigDataRate	OrigDataStartFrame	OrigNumFrames	
100.00	100.00	7	42	mm	100.00	2289	222	
Frame#	Time	LFHD			RFHD			LBHD			RBHD			C7			T10			CLAV			STRN			RBAK			LSHO			LUPA			LELB			LFRM			LWRA			LWRB			LFIN			RSHO			RUPA			RELB			RFRM			RWRA			RWRB			RFIN			LASI			RASI			LPSI			RPSI			LTHI			LKNE			LTIB			LANK			LHEE			LTOE			RTHI			RKNE			RTIB			RANK			RHEE			RTOE			*39			*40			*41			
		X1	Y1	Z1	X2	Y2	Z2	X3	Y3	Z3	X4	Y4	Z4	X5	Y5	Z5	X6	Y6	Z6	X7	Y7	Z7	X8	Y8	Z8	X9	Y9	Z9	X10	Y10	Z10	X11	Y11	Z11	X12	Y12	Z12	X13	Y13	Z13	X14	Y14	Z14	X15	Y15	Z15	X16	Y16	Z16	X17	Y17	Z17	X18	Y18	Z18	X19	Y19	Z19	X20	Y20	Z20	X21	Y21	Z21	X22	Y22	Z22	X23	Y23	Z23	X24	Y24	Z24	X25	Y25	Z25	X26	Y26	Z26	X27	Y27	Z27	X28	Y28	Z28	X29	Y29	Z29	X30	Y30	Z30	X31	Y31	Z31	X32	Y32	Z32	X33	Y33	Z33	X34	Y34	Z34	X35	Y35	Z35	X36	Y36	Z36	X37	Y37	Z37	X38	Y38	Z38	X39	Y39	Z39	X40	Y40	Z40	X41	Y41	Z41	X42	Y42	Z42	

84	0.830	-1048.17651	-211.58626	1732.31470	-907.50269	-230.74173	1707.32483	-1078.31812	-334.76761	1650.08813	-940.94513	-365.60300	1622.79480	-1006.79639	-397.83722	1510.20764	-994.45734	-446.60257	1231.72217	-1017.42169	-256.79181	1442.57556	-1011.92267	-201.68536	1273.66516	-943.64771	-452.44888	1332.58289	-1186.55701	-322.37653	1488.31665	-1275.56018	-318.03430	1291.15259	-1295.92163	-304.28308	1150.96448	-1312.69470	-261.20242	1025.12549	-1288.33179	-170.13510	922.54181	-1317.52087	-217.67630	910.50757	-1326.18823	-179.74489	857.06543	-819.99084	-321.05624	1473.34644	-736.20038	-361.00491	1287.05957	-718.80280	-354.89639	1140.93042	-694.74121	-334.73236	1022.92267	-708.23053	-291.79706	893.70947	-678.20935	-341.37708	893.38617	-672.66443	-308.23633	829.19635	-1140.25879	-217.43283	968.48596	-890.83447	-182.82393	975.48169	-1041.16626	-417.36801	1011.91846	-924.54901	-407.42084	1016.55304	-1200.83411	-313.34973	656.26868	-1189.85498	-354.79657	473.20190	-1177.01331	-507.43134	364.37454	-1142.84680	-646.03046	195.29041	-1082.68726	-672.25592	199.83878	-1167.22192	-593.49390	47.26847	-814.86517	-190.93843	674.64642	-860.54791	-154.33182	469.09869	-851.73999	-179.46098	281.30054	-886.38611	-190.52063	89.78104	-940.83447	-227.62354	36.87326	-881.95483	-37.00510	38.52801	-970.75623	-329.26724	1786.90393						 
85	0.840	-1046.66919	-202.37199	1734.10156	-905.99200	-221.36110	1708.92651	-1076.87573	-325.25955	1651.44165	-939.11255	-355.37704	1623.98962	-1004.98132	-388.01053	1511.67871	-992.01874	-436.97318	1233.28992	-1016.22998	-247.12927	1444.01233	-1010.73401	-192.07120	1275.01379	-941.16016	-443.18301	1334.43262	-1185.12695	-313.51767	1489.58691	-1273.49146	-311.32483	1292.04871	-1293.05334	-299.64819	1151.48706	-1310.50940	-259.19199	1024.99695	-1287.18335	-169.98294	920.53400	-1315.71643	-217.87869	909.39972	-1324.56189	-181.42374	854.94977	-818.45599	-310.24802	1475.05518	-734.03680	-348.81058	1288.38245	-716.49048	-341.63181	1142.42212	-692.41058	-320.31323	1024.57007	-706.03503	-276.94809	895.42828	-675.77948	-325.71194	895.05487	-670.15845	-291.84351	831.23364	-1138.83191	-208.54851	969.65491	-889.45020	-173.36105	976.33472	-1038.89966	-408.24765	1013.10126	-922.36084	-398.05191	1018.08142	-1200.21985	-297.69376	657.01501	-1189.64038	-334.25269	473.44354	-1175.79175	-487.55652	367.46356	-1138.53662	-627.80182	200.70358	-1077.60034	-653.35272	203.82710	-1168.35938	-576.06549	53.53590	-814.51196	-184.16991	675.01385	-859.83246	-150.13197	469.16437	-850.54541	-176.49451	281.53061	-886.35205	-190.37401	89.96368	-940.82159	-227.67284	36.96619	-881.95789	-36.90459	38.44292	-969.26080	-320.13815	1788.11694						 
86	0.850	-1045.40576	-193.26137	1735.92908	-904.77997	-211.94183	1710.52063	-1075.44910	-315.84256	1652.53613	-937.80487	-346.16235	1624.92822	-1003.11786	-378.19269	1513.28540	-989.78119	-427.57532	1234.90808	-1015.15833	-237.48383	1445.43835	-1009.79254	-182.61514	1276.23657	-938.48236	-432.27951	1335.93787	-1183.82166	-304.79745	1490.64197	-1272.09607	-304.62131	1293.08765	-1290.55249	-294.97433	1152.14417	-1308.44104	-257.22345	1024.91052	-1286.15088	-169.93039	918.26886	-1314.22070	-218.29445	908.62927	-1322.94641	-183.25864	853.02136	-817.08136	-299.06287	1476.47864	-731.82281	-335.89551	1289.75684	-714.06305	-328.09039	1143.88660	-690.17322	-305.33923	1026.01770	-703.91620	-260.75449	897.69891	-673.38159	-309.81845	896.69611	-667.71680	-275.13660	833.40533	-1138.00842	-200.07964	971.00543	-888.29456	-164.08235	977.03674	-1036.55945	-399.27960	1014.26910	-920.23322	-388.77878	1019.57281	-1199.60913	-282.58450	658.43835	-1189.01807	-313.77875	474.47537	-1173.36035	-467.54178	371.00201	-1134.25940	-608.58118	205.09546	-1072.60742	-633.42950	206.43098	-1169.36719	-556.56262	59.14257	-813.85461	-177.77222	675.42700	-859.35742	-146.00424	469.04895	-849.72253	-173.90379	281.63229	-886.26135	-190.08485	90.10626	-940.78149	-227.79776	37.01421	-881.89490	-36.86942	38.34391	-968.21899	-311.46826	1789.61194						 
87	0.860	-1044.30029	-184.18196	1737.73206	-903.60815	-202.63872	1712.21863	-1074.35437	-306.38266	1653.98560	-936.77887	-336.42419	1626.19690	-1001.40430	-368.45749	1514.91479	-987.63208	-418.28445	1236.64856	-1014.22314	-227.94775	1446.80164	-1008.92957	-173.37917	1277.43713	-936.02319	-422.88766	1338.14014	-1182.60034	-296.15082	1491.72900	-1270.18164	-298.20712	1293.92444	-1288.33838	-290.41440	1152.90698	-1307.15918	-255.36861	1025.21533	-1284.94006	-169.74110	916.65668	-1312.41895	-218.83162	907.60901	-1321.30505	-185.13889	851.23218	-815.75568	-288.26492	1478.14636	-729.86365	-323.42343	1291.49695	-711.70520	-314.40182	1145.49817	-687.86603	-290.76721	1027.85974	-702.14612	-245.84335	899.50385	-671.05054	-293.61557	898.38019	-665.31732	-258.03616	835.63538	-1137.67188	-191.90166	972.54462	-887.48590	-154.81035	977.65002	-1034.18274	-390.44156	1015.47998	-918.07977	-379.49625	1020.90979	-1199.18335	-267.67178	660.01355	-1188.28003	-293.43118	476.29041	-1170.34448	-447.03043	374.10855	-1130.53931	-588.47675	208.33388	-1068.53577	-612.49512	208.15417	-1170.35437	-535.13684	63.93906	-812.97137	-171.51163	675.80878	-858.56726	-142.62901	468.86911	-849.11731	-171.57237	281.55643	-886.11572	-189.79735	90.15687	-940.70276	-227.89217	36.99554	-881.75104	-36.87761	38.26580	-966.87476	-302.48486	1790.87268						 
88	0.870	-1043.43274	-175.08395	1739.55713	-902.67957	-193.25803	1713.93188	-1073.16040	-297.01447	1655.21045	-935.62323	-326.77762	1627.30005	-999.70465	-358.74033	1516.55249	-985.49402	-409.24191	1238.47107	-1013.34460	-218.45628	1448.15381	-1008.31995	-164.21124	1278.59924	-933.46478	-412.86777	1340.07239	-1181.60730	-287.52170	1492.98315	-1268.96094	-291.75458	1294.97742	-1286.09619	-285.71094	1153.70630	-1304.90991	-253.45161	1025.31165	-1283.80420	-169.83606	915.00659	-1310.89417	-219.24023	907.18176	-1319.64111	-187.11842	849.72260	-814.49158	-276.53589	1479.63867	-727.81836	-310.55539	1292.93225	-709.40356	-300.72369	1146.94055	-685.67969	-275.66342	1029.75378	-700.61212	-230.58131	901.57898	-668.77197	-277.41754	900.16510	-663.03845	-241.05753	837.94659	-1137.72327	-183.98448	974.25098	-886.72272	-145.81415	978.20850	-1031.67383	-381.80756	1016.80774	-915.84058	-370.75290	1022.52246	-1198.60767	-252.96120	661.78308	-1187.47681	-273.22726	478.55457	-1167.34729	-426.11234	376.43195	-1127.29602	-567.18286	210.18100	-1064.79382	-590.93555	208.80762	-1170.79822	-512.56708	67.86774	-812.15460	-165.20630	675.98541	-857.90637	-139.48900	468.56177	-848.53552	-169.46056	281.34708	-886.01465	-189.61092	90.18357	-940.67084	-228.00206	37.06043	-881.56366	-36.89143	38.18749	-965.73035	-293.78815	1792.03748						 
89	0.880	-1042.64551	-166.15428	1741.33569	-901.90570	-183.91811	1715.63391	-1072.30090	-287.68613	1656.48315	-934.50067	-317.17059	1628.42700	-998.17352	-349.09113	1518.14697	-983.56000	-400.13763	1240.23145	-1012.65625	-208.97386	1449.49316	-1007.78290	-155.19000	1279.67981	-930.92279	-402.95102	1341.93713	-1180.55933	-279.08890	1494.03235	-1266.71033	-285.68588	1295.61694	-1284.03687	-281.03702	1154.70667	-1303.12024	-251.55383	1025.81946	-1282.76233	-169.92825	913.43311	-1309.37891	-219.73628	906.96643	-1317.99976	-189.10451	848.49103	-813.47180	-265.49228	1481.40051	-726.19000	-298.01614	1294.36670	-707.11487	-286.57394	1148.49390	-683.61584	-260.52460	1031.58203	-698.43768	-213.75012	904.12543	-666.67902	-260.94437	902.02966	-660.99231	-224.08218	840.48346	-1137.96448	-176.28838	976.01794	-886.03265	-137.00102	978.80310	-1029.22473	-373.32886	1018.21893	-913.85431	-361.89777	1023.83905	-1198.03015	-238.31911	663.74811	-1186.73352	-253.40170	480.92007	-1164.73804	-405.28510	378.27966	-1124.22888	-545.29224	210.96083	-1061.32581	-568.80865	208.07080	-1170.51868	-488.50403	70.84875	-811.10303	-159.34372	676.31494	-857.73877	-136.46771	468.14151	-848.25476	-167.70287	281.08636	-885.98285	-189.48819	90.16936	-940.66815	-228.03346	37.05281	-881.41974	-36.88716	38.09651	-964.70337	-284.68875	1793.24792						 
90	0.890	-1042.05688	-157.16931	1743.01917	-901.26233	-174.62178	1717.29065	-1071.45288	-278.44299	1657.65686	-933.74774	-307.46307	1629.74707	-996.84766	-339.61194	1519.63708	-981.62750	-391.06158	1242.03052	-1011.98578	-199.57506	1450.74854	-1007.32343	-146.27010	1280.75500	-928.52588	-393.29874	1344.00720	-1180.03564	-270.55603	1495.45386	-1265.44470	-279.38025	1296.66260	-1282.10156	-276.41541	1155.70349	-1301.20728	-249.52391	1026.25708	-1281.46130	-170.06920	912.12549	-1307.88342	-220.20435	906.87866	-1316.39587	-191.03899	847.51031	-812.59955	-253.96266	1482.94116	-724.17566	-284.28595	1296.14380	-704.98309	-272.82257	1150.31238	-681.72736	-245.39792	1033.40857	-696.61584	-197.57925	906.62842	-664.60077	-244.39784	904.03448	-658.84882	-206.21544	843.02271	-1138.17041	-168.79547	977.87311	-885.31201	-128.66367	979.35797	-1026.83582	-364.97824	1019.73279	-911.82513	-353.26178	1025.19104	-1197.58350	-223.71786	665.90759	-1186.20935	-233.97527	483.21426	-1162.36682	-384.43921	379.53320	-1121.40918	-522.71399	210.56259	-1058.39136	-546.31689	206.68507	-1169.50574	-462.85577	72.71402	-810.37097	-153.52916	676.47021	-856.96106	-133.64166	467.82840	-848.05194	-166.46089	280.92188	-886.06665	-189.39148	90.17032	-940.74933	-228.09174	37.08457	-881.33142	-36.85139	38.02952	-963.73096	-275.67902	1794.34473	-3357.04834	2845.90039	1033.60657			 
